<svg xmlns="http://www.w3.org/2000/svg" fill="none" viewBox="-3.035 -3.035 84.98 84.98" height="84.98" width="84.98"><g id="horizontal-menu-circle--navigation-dots-three-circle-button-horizontal-menu"><path id="Vector" fill="#d7b222" d="M39.455 76.09178571428572a36.636785714285715 36.636785714285715 0 1 0 0 -73.27357142857143 36.636785714285715 36.636785714285715 0 0 0 0 73.27357142857143Z" stroke-width="6.07"></path><path id="Vector_2" stroke="#fad969" stroke-linecap="round" stroke-linejoin="round" d="M39.455 76.09178571428572a36.636785714285715 36.636785714285715 0 1 0 0 -73.27357142857143 36.636785714285715 36.636785714285715 0 0 0 0 73.27357142857143Z" stroke-width="6.07"></path><g id="Group 2606"><path id="Ellipse 1111" stroke="#fad969" stroke-linecap="round" stroke-linejoin="round" d="M22.545714285714286 40.864107142857144a1.409107142857143 1.409107142857143 0 0 1 0 -2.818214285714286" stroke-width="6.07"></path><path id="Ellipse 1112" stroke="#fad969" stroke-linecap="round" stroke-linejoin="round" d="M22.545714285714286 40.864107142857144a1.409107142857143 1.409107142857143 0 0 0 0 -2.818214285714286" stroke-width="6.07"></path></g><g id="Group 2632"><path id="Ellipse 1111_2" stroke="#fad969" stroke-linecap="round" stroke-linejoin="round" d="M39.455 40.864107142857144a1.409107142857143 1.409107142857143 0 0 1 0 -2.818214285714286" stroke-width="6.07"></path><path id="Ellipse 1112_2" stroke="#fad969" stroke-linecap="round" stroke-linejoin="round" d="M39.455 40.864107142857144a1.409107142857143 1.409107142857143 0 0 0 0 -2.818214285714286" stroke-width="6.07"></path></g><g id="Group 2633"><path id="Ellipse 1111_3" stroke="#fad969" stroke-linecap="round" stroke-linejoin="round" d="M56.364285714285714 40.864107142857144a1.409107142857143 1.409107142857143 0 0 1 0 -2.818214285714286" stroke-width="6.07"></path><path id="Ellipse 1112_3" stroke="#fad969" stroke-linecap="round" stroke-linejoin="round" d="M56.364285714285714 40.864107142857144a1.409107142857143 1.409107142857143 0 1 0 0 -2.818214285714286" stroke-width="6.07"></path></g></g></svg>